<mxfile host="app.diagrams.net" modified="2023-10-30T07:56:45.311Z" agent="Mozilla/5.0 (Windows NT 10.0; Win64; x64) AppleWebKit/537.36 (KHTML, like Gecko) Chrome/93.0.4577.63 Safari/537.36 Edg/93.0.961.47" etag="MCzj33D4Q18NQf-d_WgC" version="22.0.8" type="github">
  <diagram name="第 1 页" id="RiJ6ShJk63nurJiWeUSZ">
    <mxGraphModel dx="1290" dy="580" grid="1" gridSize="10" guides="1" tooltips="1" connect="1" arrows="1" fold="1" page="1" pageScale="1" pageWidth="827" pageHeight="1169" math="0" shadow="0">
      <root>
        <mxCell id="0" />
        <mxCell id="1" parent="0" />
        <mxCell id="1ppG990Of0TTeSGN7Bnb-8" style="edgeStyle=orthogonalEdgeStyle;rounded=0;orthogonalLoop=1;jettySize=auto;html=1;entryX=0;entryY=0.5;entryDx=0;entryDy=0;" edge="1" parent="1" source="1ppG990Of0TTeSGN7Bnb-1" target="1ppG990Of0TTeSGN7Bnb-2">
          <mxGeometry relative="1" as="geometry" />
        </mxCell>
        <mxCell id="1ppG990Of0TTeSGN7Bnb-1" value="开始" style="rounded=1;whiteSpace=wrap;html=1;" vertex="1" parent="1">
          <mxGeometry y="160" width="120" height="60" as="geometry" />
        </mxCell>
        <mxCell id="1ppG990Of0TTeSGN7Bnb-9" style="edgeStyle=orthogonalEdgeStyle;rounded=0;orthogonalLoop=1;jettySize=auto;html=1;entryX=0;entryY=0.5;entryDx=0;entryDy=0;" edge="1" parent="1" source="1ppG990Of0TTeSGN7Bnb-2" target="1ppG990Of0TTeSGN7Bnb-3">
          <mxGeometry relative="1" as="geometry" />
        </mxCell>
        <mxCell id="1ppG990Of0TTeSGN7Bnb-2" value="选中图元" style="rounded=0;whiteSpace=wrap;html=1;" vertex="1" parent="1">
          <mxGeometry x="160" y="160" width="120" height="60" as="geometry" />
        </mxCell>
        <mxCell id="1ppG990Of0TTeSGN7Bnb-10" style="edgeStyle=orthogonalEdgeStyle;rounded=0;orthogonalLoop=1;jettySize=auto;html=1;exitX=1;exitY=0.5;exitDx=0;exitDy=0;entryX=0;entryY=0.5;entryDx=0;entryDy=0;" edge="1" parent="1" source="1ppG990Of0TTeSGN7Bnb-3" target="1ppG990Of0TTeSGN7Bnb-4">
          <mxGeometry relative="1" as="geometry" />
        </mxCell>
        <mxCell id="1ppG990Of0TTeSGN7Bnb-12" style="edgeStyle=orthogonalEdgeStyle;rounded=0;orthogonalLoop=1;jettySize=auto;html=1;exitX=0.5;exitY=1;exitDx=0;exitDy=0;" edge="1" parent="1" source="1ppG990Of0TTeSGN7Bnb-3" target="1ppG990Of0TTeSGN7Bnb-7">
          <mxGeometry relative="1" as="geometry" />
        </mxCell>
        <mxCell id="1ppG990Of0TTeSGN7Bnb-3" value="类型是否是&lt;br&gt;直线或圆弧" style="rhombus;whiteSpace=wrap;html=1;" vertex="1" parent="1">
          <mxGeometry x="320" y="145" width="80" height="90" as="geometry" />
        </mxCell>
        <mxCell id="1ppG990Of0TTeSGN7Bnb-11" style="edgeStyle=orthogonalEdgeStyle;rounded=0;orthogonalLoop=1;jettySize=auto;html=1;entryX=0;entryY=0.5;entryDx=0;entryDy=0;" edge="1" parent="1" source="1ppG990Of0TTeSGN7Bnb-4" target="1ppG990Of0TTeSGN7Bnb-5">
          <mxGeometry relative="1" as="geometry" />
        </mxCell>
        <mxCell id="1ppG990Of0TTeSGN7Bnb-4" value="计算鼠标点向选中图元的正交投影点" style="rounded=0;whiteSpace=wrap;html=1;" vertex="1" parent="1">
          <mxGeometry x="440" y="160" width="120" height="60" as="geometry" />
        </mxCell>
        <mxCell id="1ppG990Of0TTeSGN7Bnb-13" style="edgeStyle=orthogonalEdgeStyle;rounded=0;orthogonalLoop=1;jettySize=auto;html=1;entryX=0.5;entryY=0;entryDx=0;entryDy=0;" edge="1" parent="1" source="1ppG990Of0TTeSGN7Bnb-5" target="1ppG990Of0TTeSGN7Bnb-6">
          <mxGeometry relative="1" as="geometry" />
        </mxCell>
        <mxCell id="1ppG990Of0TTeSGN7Bnb-5" value="将图元离投影点近的结构点数据更改为投影点" style="rounded=0;whiteSpace=wrap;html=1;" vertex="1" parent="1">
          <mxGeometry x="590" y="160" width="120" height="60" as="geometry" />
        </mxCell>
        <mxCell id="1ppG990Of0TTeSGN7Bnb-14" style="edgeStyle=orthogonalEdgeStyle;rounded=0;orthogonalLoop=1;jettySize=auto;html=1;entryX=1;entryY=0.5;entryDx=0;entryDy=0;" edge="1" parent="1" source="1ppG990Of0TTeSGN7Bnb-6" target="1ppG990Of0TTeSGN7Bnb-7">
          <mxGeometry relative="1" as="geometry" />
        </mxCell>
        <mxCell id="1ppG990Of0TTeSGN7Bnb-6" value="更改草图数据并更新草图显示" style="rounded=0;whiteSpace=wrap;html=1;" vertex="1" parent="1">
          <mxGeometry x="590" y="280" width="120" height="60" as="geometry" />
        </mxCell>
        <mxCell id="1ppG990Of0TTeSGN7Bnb-7" value="结束" style="rounded=1;whiteSpace=wrap;html=1;" vertex="1" parent="1">
          <mxGeometry x="300" y="280" width="120" height="60" as="geometry" />
        </mxCell>
      </root>
    </mxGraphModel>
  </diagram>
</mxfile>
